<svg width="693" height="104" viewBox="0 0 693 104" fill="none" xmlns="http://www.w3.org/2000/svg">
<path d="M1 80.5125C5.39374 80.8588 15.8035 83.0059 22.2927 88.8238C30.4042 96.0962 50.683 109.602 52.2039 99.2129C53.4207 90.9016 59.1325 92.6331 61.8364 94.5378C64.0332 96.2693 68.9339 99.2129 70.9618 97.1351C73.4967 94.5378 77.5524 74.2791 84.65 73.2402C91.7476 72.2012 87.6918 80.5125 92.2546 81.5514C96.8173 82.5903 98.8452 76.3569 102.901 76.3569C106.957 76.3569 112.533 87.7849 119.631 86.746C126.728 85.7071 132.305 86.746 137.375 84.1487C142.445 81.5514 140.417 76.3569 143.458 73.2402C146.5 70.1234 151.57 68.0456 152.077 63.89C152.584 59.7343 154.612 48.8258 159.682 48.3063C164.751 47.7869 164.244 51.4231 173.37 50.9036C182.495 50.3842 183.509 49.3452 186.551 52.9814C189.593 56.6176 191.114 63.89 196.183 63.89C201.253 63.89 198.211 68.0456 202.774 70.1234C207.337 72.2012 208.858 71.1623 213.927 67.5262C218.997 63.89 228.122 37.9173 239.783 37.9173C251.443 37.9173 249.415 33.7616 260.062 35.8394C270.708 37.9173 270.708 36.3589 273.243 31.6838C275.778 27.0087 280.34 22.3336 286.424 22.3336C292.508 22.3336 301.126 25.4503 306.703 23.892C312.279 22.3336 317.856 12.464 323.94 12.9834C330.023 13.5029 327.489 16.1002 339.149 16.1002C350.809 16.1002 346.753 2.0749 359.935 1.03599C373.116 -0.00291988 384.269 21.8142 394.409 23.892C404.548 25.9698 412.152 16.1002 420.771 16.1002C429.389 16.1002 437.501 28.0476 448.654 27.5282C459.808 27.0087 457.78 19.7363 466.905 19.7363C476.031 19.7363 477.045 27.5282 486.677 27.5282C496.309 27.5282 497.323 19.7363 502.393 19.7363C507.463 19.7363 514.56 19.2169 518.109 16.1002C521.658 12.9834 526.728 6.23054 530.276 12.9834C533.825 19.7363 537.374 31.1643 543.458 27.5282C549.541 23.892 555.118 25.9698 558.667 31.6838C562.216 37.3978 566.271 49.3452 572.862 46.748C579.452 44.1507 585.536 49.3452 593.141 44.1507C600.745 38.9561 607.843 30.6449 614.433 37.3978C621.024 44.1507 623.559 46.748 637.247 46.748C650.935 46.748 654.484 48.3063 662.596 44.1507C670.707 39.9951 681.353 37.3978 684.395 42.0729C686.829 45.8129 690.479 48.1332 692 48.8258" stroke="#FF9500" stroke-width="2" stroke-linecap="round" stroke-linejoin="round"/>
</svg>
