<svg width="24" height="24" viewBox="0 0 24 24" fill="none" xmlns="http://www.w3.org/2000/svg">
<path fill-rule="evenodd" clip-rule="evenodd" d="M15.6009 2.39895C15.269 2.06701 14.7308 2.06701 14.3989 2.39895C14.0669 2.7309 14.0669 3.26909 14.3989 3.60103L18.9478 8.14999H7.9999C6.44839 8.14999 4.96042 8.76633 3.86333 9.86342C2.76624 10.9605 2.1499 12.4485 2.1499 14C2.1499 15.5515 2.76624 17.0395 3.86333 18.1366C4.96042 19.2337 6.44839 19.85 7.9999 19.85H14.9999C15.4693 19.85 15.8499 19.4694 15.8499 19C15.8499 18.5306 15.4693 18.15 14.9999 18.15H7.9999C6.89925 18.15 5.84369 17.7128 5.06541 16.9345C4.28713 16.1562 3.8499 15.1006 3.8499 14C3.8499 12.8993 4.28713 11.8438 5.06541 11.0655C5.84369 10.2872 6.89925 9.84999 7.9999 9.84999H18.9478L14.3989 14.399C14.0669 14.7309 14.0669 15.2691 14.3989 15.601C14.7308 15.933 15.269 15.933 15.6009 15.601L21.6009 9.60103C21.9329 9.26909 21.9329 8.7309 21.6009 8.39895L15.6009 2.39895Z" fill="#347AE2"/>
</svg>
