<svg width="24" height="24" viewBox="0 0 24 24" fill="none" xmlns="http://www.w3.org/2000/svg">
<path fill-rule="evenodd" clip-rule="evenodd" d="M3.8499 12C3.8499 7.49887 7.49878 3.84999 11.9999 3.84999C12.8908 3.84999 13.7467 3.99263 14.547 4.25567C14.993 4.40225 15.4733 4.15955 15.6199 3.71358C15.7665 3.26761 15.5238 2.78725 15.0778 2.64067C14.1084 2.32202 13.0734 2.14999 11.9999 2.14999C6.5599 2.14999 2.1499 6.55999 2.1499 12C2.1499 17.44 6.5599 21.85 11.9999 21.85C17.4399 21.85 21.8499 17.44 21.8499 12C21.8499 11.5306 21.4693 11.15 20.9999 11.15C20.5305 11.15 20.1499 11.5306 20.1499 12C20.1499 16.5011 16.501 20.15 11.9999 20.15C7.49878 20.15 3.8499 16.5011 3.8499 12ZM19.6022 7.59973C19.9335 7.26706 19.9323 6.72888 19.5996 6.39765C19.267 6.06643 18.7288 6.06759 18.3976 6.40026L12.0495 12.7759L9.62083 10.178C9.30024 9.83511 8.76236 9.817 8.41943 10.1376C8.0765 10.4582 8.05839 10.9961 8.37898 11.339L11.4093 14.5805C11.5668 14.749 11.7861 14.8463 12.0168 14.8499C12.2475 14.8535 12.4698 14.7632 12.6325 14.5997L19.6022 7.59973Z" fill="#347AE2"/>
</svg>
