<svg width="693" height="103" viewBox="0 0 693 103" fill="none" xmlns="http://www.w3.org/2000/svg">
<path d="M1.00024 102C5.06493 99.928 6.58919 90.087 12.1781 90.605C17.7671 91.1229 20.8156 92.6768 24.8803 89.0511C28.945 85.4255 34.5339 76.1025 40.1229 76.1025C45.7118 76.1025 56.3816 68.8512 58.9221 72.4769C61.4625 76.1025 73.6566 81.7999 80.2617 80.764C86.8668 79.7281 81.2778 76.1025 97.0285 77.6563C112.779 79.2101 99.5689 80.764 116.844 80.764C134.119 80.764 139.708 93.7127 147.837 89.0511C155.967 84.3896 147.329 64.7076 161.047 62.1179C174.766 59.5282 172.225 63.1538 186.452 67.8153C200.678 72.4769 216.429 43.9898 225.574 45.5436C234.72 47.0975 236.244 55.3846 242.849 45.5436C249.454 35.7026 249.454 17.0566 258.092 16.0207C266.729 14.9848 284.004 16.0207 287.053 23.7899C290.101 31.559 289.085 39.8462 297.723 40.8821C306.36 41.918 312.965 33.6308 325.667 35.1847C338.369 36.7385 332.78 40.8821 339.894 40.8821C347.007 40.8821 351.072 30.5231 355.136 31.559C359.201 32.5949 363.266 36.7385 365.298 40.8821C367.33 45.0256 367.838 51.241 371.903 51.241C375.968 51.241 375.46 63.1538 379.524 61.082C383.589 59.0102 384.097 61.5999 385.621 56.9384C387.146 52.2769 389.178 42.9539 392.227 42.4359C395.275 41.918 394.259 41.4 398.324 42.4359C402.388 43.4718 404.929 42.9539 405.437 39.8462C405.945 36.7385 405.437 35.1847 408.993 35.1847C412.55 35.1847 414.074 37.2564 419.663 39.8462C425.252 42.4359 446.592 60.0461 453.197 58.4922C459.802 56.9384 464.883 51.241 476.061 51.241C487.239 51.241 488.255 56.4205 496.384 53.8307C504.514 51.241 503.497 48.6513 515.183 45.5436C526.869 42.4359 541.604 39.8462 548.209 45.5436C554.814 51.241 575.138 56.9384 581.235 51.241C587.332 45.5436 592.412 43.9897 596.477 47.6154C600.542 51.241 594.445 55.3846 603.59 56.9384C612.736 58.4922 617.309 56.9384 619.849 51.241C622.39 45.5436 624.93 39.3282 631.027 40.8821C637.124 42.4359 649.826 25.8616 654.907 24.8257C659.988 23.7898 673.706 17.5745 673.706 11.3591C673.706 6.38685 685.9 2.3814 691.997 1.00021" stroke="#347AE2" stroke-width="2" stroke-linecap="round" stroke-linejoin="round"/>
</svg>
